<?xml version="1.0" standalone="no"?><!DOCTYPE svg PUBLIC "-//W3C//DTD SVG 1.1//EN" "http://www.w3.org/Graphics/SVG/1.1/DTD/svg11.dtd"><svg t="1566647163433" class="icon" viewBox="0 0 1024 1024" version="1.1" xmlns="http://www.w3.org/2000/svg" p-id="16120" width="16" height="16" xmlns:xlink="http://www.w3.org/1999/xlink"><defs><style type="text/css"></style></defs><path d="M418.966 426.97c-117.716 0-213.484-95.772-213.484-213.486S301.248 0 418.966 0c117.716 0 213.484 95.768 213.484 213.484s-95.772 213.486-213.484 213.486z m0-372.144c-87.484 0-158.658 71.174-158.658 158.658s71.174 158.66 158.658 158.66 158.658-71.176 158.658-158.66-71.174-158.658-158.658-158.658zM663.32 1024c-117.716 0-213.484-95.768-213.484-213.484s95.768-213.486 213.484-213.486S876.804 692.8 876.804 810.516 781.036 1024 663.32 1024z m0-372.144c-87.484 0-158.658 71.176-158.658 158.66s71.174 158.658 158.658 158.658 158.658-71.174 158.658-158.658-71.174-158.66-158.658-158.66z" fill="#2D527C" p-id="16121"></path><path d="M477.25 810.516c0-98.134 75.984-178.466 172.318-185.512-23.242-66.168-74.154-119.308-138.862-145.548l-91.738 158.896-91.738-158.896c-89.48 36.284-152.616 123.988-152.616 226.484v289.048h464.68c-91.408-11.792-162.044-89.858-162.044-184.472z" fill="#CEE8FA" p-id="16122"></path><path d="M639.29 1022.402H174.61c-15.14 0-27.414-12.276-27.414-27.414V705.942c0-111.208 66.622-210.082 169.73-251.89 12.674-5.132 27.202-0.148 34.042 11.7l67.998 117.776 67.998-117.776a27.412 27.412 0 0 1 34.042-11.7c72.306 29.318 128.594 88.318 154.428 161.864a27.418 27.418 0 0 1-23.864 36.426c-82.374 6.026-146.902 75.504-146.902 158.172 0 79.506 59.386 147.124 138.136 157.284 14.338 1.85 24.776 14.518 23.85 28.946-0.936 14.43-12.906 25.658-27.364 25.658z m-437.268-54.826h316.888c-42.636-39.286-69.076-95.528-69.076-157.06 0-98.452 68.02-183.004 160.522-206.77a217.324 217.324 0 0 0-88.496-88.79l-79.156 137.102a27.41 27.41 0 0 1-47.48 0l-79.166-137.122c-69.98 37.564-114.034 110.202-114.034 191.002v261.638z" fill="#2D527C" p-id="16123"></path><path d="M663.32 900.068c-15.14 0-27.414-12.276-27.414-27.414v-124.276c0-15.138 12.274-27.414 27.414-27.414 15.14 0 27.414 12.276 27.414 27.414v124.276c0 15.138-12.274 27.414-27.414 27.414z" fill="#2D527C" p-id="16124"></path><path d="M725.458 837.93h-124.276c-15.14 0-27.414-12.276-27.414-27.414s12.272-27.414 27.414-27.414h124.276c15.14 0 27.414 12.276 27.414 27.414s-12.274 27.414-27.414 27.414z" fill="#2D527C" p-id="16125"></path></svg>